HIERARCHY
ROOT Hips
{
    OFFSET -0.1800 -22.3300 2.8200
    CHANNELS 6 Xposition Yposition Zposition Zrotation Yrotation Xrotation 
    JOINT LeftUpLeg
    {
        OFFSET -0.6800 6.9500 -9.1400
        CHANNELS 3 Zrotation Yrotation Xrotation
        JOINT LeftLeg
        {
            OFFSET -0.4500 3.4300 -37.5200
            CHANNELS 3 Zrotation Yrotation Xrotation
            JOINT LeftFoot
            {
                OFFSET -4.3700 -1.3600 -39.8000
                CHANNELS 3 Zrotation Yrotation Xrotation
                JOINT LeftToe
                {
                    OFFSET 11.9300 2.6400 -5.5800
                    CHANNELS 3 Zrotation Yrotation Xrotation
                    End Site
                    {
                        OFFSET 0.0000 0.0000 0.0000
                    }
                }
            }
        }
    }
    JOINT RightUpLeg
    {
        OFFSET -0.4300 -6.7700 -9.0500
        CHANNELS 3 Zrotation Yrotation Xrotation
        JOINT RightLeg
        {
            OFFSET -0.8900 -3.8300 -38.2600
            CHANNELS 3 Zrotation Yrotation Xrotation
            JOINT RightFoot
            {
                OFFSET -4.2300 1.5800 -39.8400
                CHANNELS 3 Zrotation Yrotation Xrotation
                JOINT RightToe
                {
                    OFFSET 12.3300 -2.5400 -4.8100
                    CHANNELS 3 Zrotation Yrotation Xrotation
                    End Site
                    {
                        OFFSET 0.0000 0.0000 0.0000
                    }
                }
            }
        }
    }
    JOINT Spine
    {
        OFFSET -2.6700 -0.2500 10.9000
        CHANNELS 3 Zrotation Yrotation Xrotation
        JOINT Spine1
        {
            OFFSET 0.1100 0.5500 13.5200
            CHANNELS 3 Zrotation Yrotation Xrotation
            JOINT Spine2
            {
                OFFSET 2.5400 0.1500 5.2900
                CHANNELS 3 Zrotation Yrotation Xrotation
                JOINT Neck
                {
                    OFFSET -4.2900 -0.2800 21.3900
                    CHANNELS 3 Zrotation Yrotation Xrotation
                    JOINT Head
                    {
                        OFFSET 5.1300 0.5200 6.5000
                        CHANNELS 3 Zrotation Yrotation Xrotation
                        End Site
                        {
                            OFFSET 0.0000 0.0000 0.0000
                        }
                    }
                }
                JOINT LeftShoulder
                {
                    OFFSET -3.4100 7.8800 12.1700
                    CHANNELS 3 Zrotation Yrotation Xrotation
                    JOINT LeftArm
                    {
                        OFFSET -0.8900 9.1000 3.0500
                        CHANNELS 3 Zrotation Yrotation Xrotation
                        JOINT LeftForeArm
                        {
                            OFFSET -2.7500 25.9600 -1.2800
                            CHANNELS 3 Zrotation Yrotation Xrotation
                            JOINT LeftHand
                            {
                                OFFSET -1.4900 8.4000 -0.8200
                                CHANNELS 3 Zrotation Yrotation Xrotation
                                End Site
                                {
                                    OFFSET 0.0000 0.0000 0.0000
                                }
                            }
                        }
                    }
                }
                JOINT RightShoulder
                {
                    OFFSET -3.8600 -8.1800 11.8800
                    CHANNELS 3 Zrotation Yrotation Xrotation
                    JOINT RightArm
                    {
                        OFFSET -0.9100 -9.6000 3.2600
                        CHANNELS 3 Zrotation Yrotation Xrotation
                        JOINT RightForeArm
                        {
                            OFFSET -2.1400 -25.3700 -1.3300
                            CHANNELS 3 Zrotation Yrotation Xrotation
                            JOINT RightHand
                            {
                                OFFSET -1.0300 -8.4600 -0.6100
                                CHANNELS 3 Zrotation Yrotation Xrotation
                                End Site
                                {
                                    OFFSET 0.0000 0.0000 0.0000
                                }
                            }
                        }
                    }
                }
            }
        }
    }
}
MOTION
Frames: 5
Frame Time: 0.016667
0.488435 0.681223 -0.091195 81.894501 -1.942447 -0.857871 4.419211 7.801686 2.217565 0.854044 26.059826 -5.787805 2.032955 -21.068377 -12.915558 37.489910 4.514285 -23.753214 -6.144526 -2.696163 2.579124 9.589928 19.148920 7.816126 -0.499017 -26.147198 -6.877002 -48.632622 12.349079 18.407604 0.048075 0.324925 4.268104 -3.376645 7.660556 3.121646 -0.526056 -5.150162 2.331690 1.027121 11.673384 -2.136365 7.888981 -9.195856 -4.298078 -4.169673 -4.431418 -31.130552 -6.263165 -7.092993 -49.385006 -4.083372 -23.531471 10.994649 -3.357521 -16.197206 -73.466431 13.665076 -7.028692 21.734365 14.479409 -5.343181 44.176945 29.330667 -24.452517 -22.590815 -4.147339 -4.309577 17.693729 
0.965940 1.266259 -0.077599 80.355171 -2.102153 0.517809 5.694546 -0.775564 1.975281 6.018555 40.573658 -6.467398 1.249451 -12.016251 -11.882047 36.341702 9.834594 -17.796310 -5.019042 -1.174086 0.358277 10.207465 17.470121 7.254170 0.246243 -27.313730 -6.049949 -41.234844 9.580029 19.567490 1.133301 0.242512 1.930754 -4.128664 6.179159 0.788792 0.262908 -4.884223 1.724129 -2.204581 10.763678 -3.179636 9.424580 -8.508946 -4.795396 -6.270893 -2.497229 -28.049715 -6.871168 -5.329226 -49.227226 -4.755798 -23.746546 11.227436 -2.579075 -12.926393 -77.806175 14.367922 -9.194237 22.262674 14.968977 -3.591385 45.947529 31.574293 -21.265215 -25.628569 -6.776734 5.354757 21.964531 
1.446514 1.727222 0.074446 80.767319 -1.579796 1.624303 5.694546 -0.775564 1.975281 6.018555 40.573658 -6.467398 1.249451 -12.016251 -11.882047 36.341702 9.834594 -17.796310 -5.019042 -1.174086 0.358277 10.207465 17.470121 7.254170 0.246243 -27.313730 -6.049949 -41.234844 9.580029 19.567490 1.133301 0.242512 1.930754 -4.128664 6.179159 0.788792 0.262908 -4.884223 1.724129 -2.204581 10.763678 -3.179636 9.424580 -8.508946 -4.795396 -6.270893 -2.497229 -28.049715 -6.871168 -5.329226 -49.227226 -4.755798 -23.746546 11.227436 -2.579075 -12.926393 -77.806175 14.367922 -9.194237 22.262674 14.968977 -3.591385 45.947529 31.574293 -21.265215 -25.628569 -6.776734 5.354757 21.964531 
1.884970 2.568605 0.488490 81.732407 -1.451824 2.714406 -0.534559 -11.949659 2.445060 10.625129 47.372425 -4.726701 3.672686 -25.173840 0.157710 31.817699 4.781881 -16.775835 -5.424609 0.579103 -0.586206 10.605366 13.869627 5.510340 -2.271787 -23.180307 -6.448224 -46.486008 -8.448348 8.808228 -0.346335 1.776289 -0.828559 -4.788522 7.164245 -1.013763 0.066954 -6.684094 1.145080 -5.856066 4.871305 -2.703414 4.248557 -7.407176 -0.260606 -4.331542 -3.750014 -29.113667 -7.834777 -5.289370 -46.431034 -3.290427 -24.242134 8.693497 -6.107599 -8.281248 -64.245872 15.629805 -9.743114 25.274782 20.241650 -2.655773 42.590546 27.757296 -21.469194 -22.354431 -5.260128 14.510076 13.229522 
2.293777 3.558531 0.910783 82.346870 -2.597908 3.557490 -0.534559 -11.949659 2.445060 10.625129 47.372425 -4.726701 3.672686 -25.173840 0.157710 31.817699 4.781881 -16.775835 -5.424609 0.579103 -0.586206 10.605366 13.869627 5.510340 -2.271787 -23.180307 -6.448224 -46.486008 -8.448348 8.808228 -0.346335 1.776289 -0.828559 -4.788522 7.164245 -1.013763 0.066954 -6.684094 1.145080 -5.856066 4.871305 -2.703414 4.248557 -7.407176 -0.260606 -4.331542 -3.750014 -29.113667 -7.834777 -5.289370 -46.431034 -3.290427 -24.242134 8.693497 -6.107599 -8.281248 -64.245872 15.629805 -9.743114 25.274782 20.241650 -2.655773 42.590546 27.757296 -21.469194 -22.354431 -5.260128 14.510076 13.229522 
